<svg xmlns="http://www.w3.org/2000/svg" viewBox="0 0 38.69 40.44"><defs><style>.cls-1{fill:#4c4c4c;}</style></defs><title>Asset 16</title><g id="Layer_2" data-name="Layer 2"><g id="Layer_1-2" data-name="Layer 1"><path class="cls-1" d="M38.54,5.25a6.62,6.62,0,0,0-2.88-4.19h0a6.66,6.66,0,0,0-9.19,2l-12.9,19.9-2-2.2A6.64,6.64,0,0,0,0,24.87a6.57,6.57,0,0,0,1.71,4.78l7.81,8.61a6.64,6.64,0,0,0,4.92,2.18,4.87,4.87,0,0,0,.54,0,6.67,6.67,0,0,0,5-3L37.62,10.26A6.6,6.6,0,0,0,38.54,5.25ZM34.73,8.38,17.14,35.54a3.2,3.2,0,0,1-5.06.41L4.27,27.34A3.19,3.19,0,0,1,3.45,25a3.21,3.21,0,0,1,3.19-3H6.8A3.2,3.2,0,0,1,9,23l3.5,3.87a1.72,1.72,0,0,0,2.72-.22L29.36,4.9A3.2,3.2,0,0,1,33.78,4a3.2,3.2,0,0,1,.95,4.42Z"/></g></g></svg>